<svg fill="none" xmlns="http://www.w3.org/2000/svg" viewBox="0 0 120 65"><path d="M32.6 9.3l7.3 9.5h-3.6l-3.7-4.7V9.3zM18.2 3.9l5.7 5.7h-3.7L14.6 4l3.6-.2z" fill="#575555"/><path fill="#575555" d="M16 9h20v7H16zM0 0h20v7H0zM85 48h20v7H85zM100 57h20v7h-20zM20.4 22.4c0-.8.4-1.5 1-2a3.6 3.6 0 013-.8 9.2 9.2 0 011.3.2l.7.2.2 2.6-.3.1h-.5c0-.6-.3-1.1-.6-1.6-.4-.5-.9-.7-1.4-.7-.4 0-.7.1-1 .3-.2.3-.3.6-.3 1 0 .3 0 .5.2.7 0 .2.2.4.5.6a7.6 7.6 0 001.4 1 6 6 0 00.7.4 5.5 5.5 0 011 .8l.4.5.3.7v.9c0 .8-.3 1.5-1 2-.6.6-1.4.9-2.3.9-.9 0-1.8-.2-3-.4a14.5 14.5 0 01-.4-2.6l.3-.2h.5c.1.6.4 1 .8 1.5s1 .8 1.5.8c1 0 1.5-.6 1.5-1.7l-.1-.6-.5-.5a6.2 6.2 0 00-1-.8 15.6 15.6 0 01-2.2-1.6c-.3-.2-.4-.5-.5-.8l-.2-1zm8.6 1.8h-1l-.1-.5v-.1a8.9 8.9 0 002.5-1.8l.2-.2h.3l.1.2v1.5h1.7c.1 0 .2 0 .2.2 0 .3 0 .5-.2.7H31V28c0 .8.3 1.2.9 1.2h.4l.3-.2h.1l.2.1v.3s-.2.3-.6.5l-1.2.3c-.6 0-1-.2-1.5-.5-.4-.4-.6-1-.6-1.8v-3.6zm8.2-.3a1 1 0 00-.7.3c-.2.3-.4.6-.4.9l-.1 1c0 2 .5 3.1 1.6 3.1.4 0 .7-.2 1-.6l.2-1.5c0-2.1-.5-3.2-1.6-3.2zm-2.4.1c.7-.6 1.6-1 2.6-1s2 .4 2.6 1c.7.7 1 1.6 1 2.6s-.3 1.8-1 2.5-1.5 1-2.6 1c-1 0-1.9-.3-2.6-1-.7-.7-1-1.5-1-2.5s.3-1.9 1-2.6zm8.3-2.3v-1.1c-.1-.2-.4-.3-.9-.3h-.1L42 20v-.3a15.4 15.4 0 003-.5h.2l.1.2-.1 1.6V29l.5.2.5.2v.6a46 46 0 00-4.3-.4v-.2c.2 0 .4 0 .7-.2l.4-.2.1-1.2v-6.2zm7 7.3c.2 0 .4 0 .6-.2l.2-.5v-1.6a5.3 5.3 0 01-.7.3 16.5 16.5 0 00-.6.2l-.2.2-.1.2-.1.3c0 .4 0 .7.2.8l.6.3zm.6-6c.7 0 1.2.2 1.6.6.4.4.6 1.1.6 2.2v2.5c0 .4.1.5.4.5.2 0 .4 0 .5-.2l.1.3v.5a3 3 0 01-1.7.7c-.3 0-.5 0-.7-.2-.3-.2-.4-.4-.5-.6l-.1.1a6.5 6.5 0 01-.7.4 2.6 2.6 0 01-1.2.3 2 2 0 01-1.3-.5c-.4-.3-.5-.7-.5-1.2 0-.2 0-.5.2-.7 0-.3.2-.5.4-.6l.7-.4.8-.3.8-.3.6-.2c.1 0 .2 0 .2-.2v-.6c0-.8-.3-1.2-.8-1.2-.6 0-.9.3-.9 1 0 .2 0 .4-.3.5l-.6.2c-.5 0-.8-.2-1-.5 0-.5.4-1 1-1.4.8-.5 1.5-.7 2.4-.7zm9.1 0c.5 0 1 .2 1.4.6l-.2 1.2c-.2.3-.4.4-.7.4-.2 0-.5-.1-.8-.4-.2-.2-.5-.3-.7-.3-.3 0-.5.1-.6.5-.2.3-.2.7-.2 1.1v3l.5.2.5.2v.6a61.9 61.9 0 00-4.3-.4l.1-.2.6-.2c.3 0 .4-.1.4-.2l.1-1.2v-2.1c0-.6 0-1-.2-1.2l-.4-.2-.3-.1h-.2v-.6h.7a163.6 163.6 0 002.6-.5v.1a4.4 4.4 0 000 .7c.5-.6 1-1 1.7-1zm5 0c.8 0 1.5 0 2 .3l.1 2h-.7c-.1-.5-.3-.8-.5-1-.2-.3-.6-.5-1-.5l-.6.2c-.2.1-.2.3-.2.5s0 .4.3.6l.9.6a8.5 8.5 0 011.3.8c.3.2.5.4.6.7l.2.9c0 .6-.3 1.2-.8 1.5-.5.4-1.2.6-2 .6a5 5 0 01-1.2-.2l-1-.4-.2-2h.3l.5.1c.1 1 .7 1.6 1.7 1.6.2 0 .4 0 .6-.2l.2-.5c0-.2 0-.4-.3-.6l-1.2-.7a4 4 0 01-1.4-1A2 2 0 0162 25c0-.7.3-1.2.8-1.5.6-.3 1.2-.5 2-.5zm10.4 1c-.7.5-1.4 1-2.1 1.7a49.3 49.3 0 013 3.4l.6.3h.4l.1.4v.2a174 174 0 00-4.1-.3v-.2h.4l.2-.2-2.3-2.7h-.2v1l.1 1.5.5.2.5.2v.6a46 46 0 00-4.3-.4v-.2c.2 0 .4 0 .6-.2.3 0 .5-.1.5-.2v-7.4-1.1c0-.2-.3-.3-.8-.3h-.1L68 20v-.3a15.4 15.4 0 003-.5h.2l.1.2-.2 1.6v5l.5-.3a29 29 0 011.8-1.5v-.1-.2-.1l-.4-.1a1 1 0 01-.2 0v-.4-.2a135.6 135.6 0 003.5.2v.4c-.4 0-.8 0-1.2.3zm4.1-2.8c-.2-.2-.3-.5-.3-.8 0-.3.1-.6.3-.8.3-.3.5-.4.9-.4.3 0 .5.1.8.4.2.2.3.5.3.8 0 .3-.1.6-.3.8-.3.2-.5.3-.8.3-.4 0-.6 0-.9-.3zm2 6.5l.1 1.4.5.2.5.2v.6a37.6 37.6 0 00-4.2 0v-.4-.2s.3 0 .5-.2c.3 0 .5-.1.5-.2v-3.3c0-.6 0-1-.2-1.2l-.3-.2-.4-.1h-.2l.1-.6 1.4-.2a16.4 16.4 0 001.6-.4h.2v.2a52.2 52.2 0 010 1.6v2.8zm5.2-3.8c-.4 0-.7.2-.9.6-.2.4-.3.7-.3 1.1l.1.1h2c.2 0 .2-.1.2-.3 0-.4 0-.7-.3-1-.2-.4-.5-.5-.8-.5zm0-.9c1 0 1.8.3 2.3 1 .6.6.9 1.3.9 2 0 .2 0 .4-.2.5h-4.1v.2c0 .5 0 1 .4 1.5.3.4.8.7 1.4.7a3.4 3.4 0 001.6-.4l.5-.4c.1 0 .2.1.2.3l-.1.3c-.1.3-.4.6-1 .9-.5.3-1 .5-1.7.5a3.5 3.5 0 01-3.5-3.6c0-1 .3-1.8 1-2.5.5-.6 1.4-1 2.4-1zM47.5 36.4c0-.8.3-1.5 1-2a3.6 3.6 0 013-.8 9.2 9.2 0 011.3.2l.6.2c.2 1 .2 1.8.2 2.6l-.2.1h-.5c0-.6-.3-1.1-.7-1.6-.4-.5-.8-.7-1.4-.7l-.9.3c-.2.3-.3.6-.3 1l.1.7.5.6a7.6 7.6 0 001.4 1 6 6 0 00.7.4 5.5 5.5 0 011 .8l.5.5.2.7.1.9c0 .8-.3 1.5-1 2-.7.6-1.5.9-2.4.9-.8 0-1.8-.2-3-.5a14.5 14.5 0 01-.3-2.5c0-.1.1-.2.3-.2h.5c0 .6.3 1 .8 1.5.4.5.9.8 1.4.8 1 0 1.6-.6 1.6-1.7 0-.2 0-.4-.2-.6l-.4-.5a6.2 6.2 0 00-1.1-.8 15.4 15.4 0 01-2.2-1.6l-.5-.8-.1-1zm8.6 1.8h-1c-.1 0-.2-.1-.2-.5v-.1a8.9 8.9 0 002.5-1.8l.3-.2h.3v1.7h1.8l.1.2-.1.7H58V42c0 .8.3 1.2.8 1.2h.5l.3-.2h.1l.1.1.1.3s-.2.3-.6.5l-1.2.3c-.6 0-1.1-.2-1.5-.5-.4-.4-.6-1-.6-1.8v-3.6zm7.6 4.8c.3 0 .5 0 .6-.2.2-.1.2-.3.2-.5v-1.6a5.3 5.3 0 01-.6.3 16.8 16.8 0 00-.6.2l-.2.2-.2.2v.3c0 .4 0 .7.2.8l.6.3zm.6-6c.7 0 1.3.2 1.7.6.4.4.6 1.1.6 2.2v2.5c0 .4.1.5.4.5.1 0 .3 0 .5-.2v.8a3 3 0 01-1.7.7c-.2 0-.4 0-.7-.2-.2-.2-.4-.4-.4-.6l-.2.1a6.5 6.5 0 01-.6.4 2.6 2.6 0 01-1.2.3 2 2 0 01-1.4-.5c-.3-.3-.5-.7-.5-1.2 0-.2 0-.5.2-.7l.5-.6c.1-.2.4-.3.7-.4l.7-.3.8-.3c.4 0 .6-.1.7-.2l.1-.2v-.6c0-.8-.2-1.2-.7-1.2-.6 0-1 .3-1 1 0 .2 0 .4-.2.5l-.6.2c-.5 0-.9-.2-1-.5 0-.5.3-1 1-1.4.7-.5 1.5-.7 2.3-.7zm9.7 0c.6 0 1.1.3 1.5.8.4.5.6 1.3.6 2.3v3l.5.2.6.2v.6a46 46 0 00-4.3-.4v-.2c.2 0 .4 0 .6-.2.3 0 .4-.1.4-.2l.1-1.2v-1.4c0-.8 0-1.3-.3-1.6-.2-.4-.5-.5-1-.5l-.8.1c-.2.2-.3.3-.3.5v2.7l.1 1.4.4.2.6.2v.6a61.9 61.9 0 00-4.3-.4v-.2c.2 0 .4 0 .6-.2.3 0 .5-.1.5-.2v-3.3c0-.6 0-1-.2-1.2l-.3-.2-.4-.1h-.1v-.6h.7a164.7 164.7 0 002.3-.6h.2l.1.2a8.3 8.3 0 000 .6A3 3 0 0174 37zm5.4-1.8c-.3-.2-.4-.5-.4-.8 0-.3.1-.6.4-.8.2-.3.5-.4.8-.4.3 0 .6.1.8.4.2.2.3.5.3.8 0 .3 0 .6-.3.8-.2.2-.5.3-.8.3-.3 0-.6 0-.8-.3zm2 6.5V43l.5.2.5.2v.6a37.5 37.5 0 00-4.2 0v-.4-.2c.1 0 .3 0 .5-.2.3 0 .5-.1.5-.2l.1-1.2v-2.1c0-.6-.1-1-.3-1.2l-.3-.2-.4-.1h-.1v-.6l1.4-.2a16.4 16.4 0 001.6-.4h.2l.1.2a52.2 52.2 0 01-.2 1.6v2.8zm4.5-4.7c1 0 1.6 0 2 .3.2.5.2 1.1.2 2h-.7c-.1-.5-.3-.8-.5-1-.2-.3-.6-.5-1-.5l-.6.2c-.2.1-.2.3-.2.5s0 .4.3.6l.9.6a8.5 8.5 0 011.3.8c.3.2.5.4.6.7l.2.9c0 .6-.3 1.2-.8 1.5-.5.4-1.2.6-2 .6a5 5 0 01-1.2-.2l-1-.4-.2-2h.3l.5.1c.1 1 .7 1.6 1.7 1.6.2 0 .4 0 .6-.2l.2-.5c0-.2 0-.4-.3-.6l-1.2-.7a4 4 0 01-1.4-1 2 2 0 01-.4-1.3c0-.7.3-1.2.8-1.5.6-.3 1.2-.5 2-.5zm3.5 3.4l-.2-.3v-.3l1.2-.8v-3.3-1.1c-.1-.2-.4-.3-.9-.3h-.1l-.1-.3v-.3a15.4 15.4 0 003-.5h.2l.1.2-.2 1.6v2.7l1-.6s0 .2.2.3v.3l-1.2.7v3.3l.1 1.4.5.2.5.2v.6a46 46 0 00-4.3-.4v-.2c.2 0 .4 0 .6-.2.3 0 .5-.1.5-.2v-3.3l-.9.6zm8 2.6c.2 0 .4 0 .5-.2.2-.1.3-.3.3-.5v-1.6a5.3 5.3 0 01-.7.3 16.8 16.8 0 00-.6.2l-.2.2-.2.2v.3c0 .4 0 .7.2.8l.6.3zm.5-6c.8 0 1.3.2 1.7.6.4.4.6 1.1.6 2.2v2.5c0 .4.1.5.4.5.2 0 .3 0 .5-.2l.1.3v.5a2.9 2.9 0 01-1.7.7c-.3 0-.5 0-.8-.2l-.4-.6-.1.1a6.5 6.5 0 01-.7.4 2.6 2.6 0 01-1.2.3 2 2 0 01-1.3-.5c-.4-.3-.5-.7-.5-1.2l.1-.7.5-.6.7-.4.7-.3.8-.3c.4 0 .6-.1.7-.2.1 0 .2 0 .2-.2v-.6c0-.8-.3-1.2-.8-1.2-.6 0-1 .3-1 1 0 .2 0 .4-.2.5l-.6.2c-.5 0-.8-.2-1-.5 0-.5.3-1 1-1.4.7-.5 1.5-.7 2.3-.7zm14.5 1.3c0-.2-.2-.4-.4-.5l-.8-.1h-.1v-.3-.3a93.5 93.5 0 013 0h.8v.6c-.1 0-.4 0-.7.2-.4.2-.6.3-.7.5l-2.5 5.4-.3.3h-.3l-.2-.1-1.9-4-1.8 3.8c0 .1 0 .2-.2.2l-.4.2s-.2 0-.2-.2l-2.7-5.8c0-.2-.2-.3-.4-.4l-.6-.1v-.3-.3a712.8 712.8 0 013.3 0h1v.5c-.2 0-.4 0-.6.2-.3 0-.4.2-.4.3l1.2 3.1a101.6 101.6 0 011.2-2.6V38a1 1 0 00-.5-.3 2 2 0 00-.6 0v-.3-.3a106 106 0 013.1 0h1v.6h-.6l-.3.4 1.2 3.1a105.2 105.2 0 011.4-2.9zM27.7 47.8h1.7a52.6 52.6 0 003.7 0v.3l-5.6 8.6-.1.3.2.1H30c.7 0 1.3-.2 1.8-.5.4-.4.8-.8 1-1.3l.1-.1h.5c0 .3-.1.5-.3.8l-.2.8a25.9 25.9 0 00-.3 1.2h-8.1l-.1-.4v-.3l5.8-8.7h-2.7l-1 .1-.5.4-.4.5a12.4 12.4 0 00-.3.8l-.2.1h-.5l.5-2.8h2.5zm9.5 9.2c.3 0 .5 0 .6-.2.2-.1.3-.3.3-.5v-1.6a5.3 5.3 0 01-.7.3 16.5 16.5 0 00-.6.2l-.2.2-.2.2v.3c0 .4 0 .7.2.8l.6.3zm.6-6c.8 0 1.3.2 1.7.6.4.4.6 1.1.6 2.2v2.5c0 .4.1.5.4.5.2 0 .3 0 .5-.2l.1.3v.5a3 3 0 01-1.7.7c-.3 0-.5 0-.7-.2-.3-.2-.4-.4-.5-.6l-.1.1a6.5 6.5 0 01-.7.4 2.6 2.6 0 01-1.2.3 2 2 0 01-1.3-.5c-.4-.3-.5-.7-.5-1.2l.1-.7.5-.6.7-.4c.3-.2.5-.3.8-.3l.8-.3.6-.2c.1 0 .2 0 .2-.2v-.6c0-.8-.3-1.2-.8-1.2-.6 0-1 .3-1 1 0 .2 0 .4-.2.5l-.6.2c-.5 0-.8-.2-1-.5 0-.5.3-1 1-1.4.8-.5 1.5-.7 2.3-.7zm5.3-1.3v-1.1c-.1-.2-.4-.3-.9-.3h-.1L42 48v-.3a15.4 15.4 0 003-.5h.2l.1.2-.1 1.6V57l.5.2.5.2v.6a46 46 0 00-4.3-.4v-.2c.2 0 .4 0 .7-.2l.4-.2.1-1.2v-6.2zm5.3-.5c-.2-.2-.4-.5-.4-.8 0-.3.2-.6.4-.8.2-.3.5-.4.8-.4.3 0 .6.1.8.4.2.2.4.5.4.8 0 .3-.2.6-.4.8-.2.2-.5.3-.8.3-.3 0-.6 0-.8-.3zm2 6.5V57l.5.2.6.2v.6a37.6 37.6 0 00-4.3 0v-.4-.2l.6-.2c.3 0 .4-.1.4-.2l.1-1.2v-2.1c0-.6 0-1-.3-1.2 0 0-.1-.2-.3-.2l-.4-.1h-.1v-.6l1.4-.2a16.4 16.4 0 001.7-.4h.2v.2a48.6 48.6 0 01-.1 1.6v2.8zm8-8.2l.5.1.2.3c0 .3-.4.7-1.1 1.3l-1.4.8h-.1l-.1-.3.2-.4a16.1 16.1 0 011.2-1.7l.6-.1zm-.5 3.5c.6 0 1 .3 1.4.8.4.5.6 1.3.6 2.3v1.6L60 57l.5.2.5.2v.6a46 46 0 00-4.2-.4v-.2l.6-.2.4-.2V54.5c0-.8 0-1.3-.2-1.6-.2-.4-.6-.5-1-.5l-.8.1c-.2.2-.3.3-.3.5v4.1l.5.2.5.2v.6a61.9 61.9 0 00-4.3-.4l.1-.2.6-.2c.3 0 .4-.1.4-.2l.1-1.2v-2.1c0-.6 0-1-.2-1.2l-.4-.2-.3-.1h-.2v-.6h.7a163.6 163.6 0 002.4-.6h.2v.2a8.4 8.4 0 000 .6h.1a3 3 0 012.2-.9zm6.8 0c.9 0 1.6 0 2 .3l.2 2H66c0-.5-.2-.8-.4-1-.3-.3-.6-.5-1.1-.5l-.6.2-.2.5.3.6 1 .6a8.5 8.5 0 011.2.8c.3.2.5.4.6.7.2.2.2.5.2.9 0 .6-.2 1.2-.8 1.5-.5.4-1.1.6-2 .6a5 5 0 01-1.2-.2l-1-.4-.1-2h.2l.5.1c.2 1 .8 1.6 1.7 1.6.3 0 .5 0 .6-.2.2 0 .3-.3.3-.5s-.1-.4-.4-.6l-1.2-.7a4 4 0 01-1.3-1A2 2 0 0162 53c0-.7.2-1.2.8-1.5.5-.3 1.1-.5 1.9-.5zm10.5 1c-.8.5-1.5 1-2.2 1.7a49.3 49.3 0 013 3.4l.6.3h.5V58a174 174 0 00-4-.3v-.2h.3l.2-.2-2.3-2.7h-.1v2.5l.5.2.6.2v.6a46 46 0 00-4.3-.4v-.2l.6-.2c.3 0 .4-.1.4-.2l.1-1.2v-6.2-1.1c0-.2-.4-.3-.8-.3H68V48v-.3a15.4 15.4 0 002.9-.5H71.3v.2l-.1 1.6v5l.5-.3a29 29 0 011.7-1.5l.1-.1v-.2l-.1-.1-.4-.1a1 1 0 01-.2 0v-.4-.2a135.6 135.6 0 003.5.2v.4c-.3 0-.7 0-1.1.3zm4.1-2.8c-.2-.2-.3-.5-.3-.8 0-.3 0-.6.3-.8.2-.3.5-.4.8-.4.3 0 .6.1.8.4.3.2.4.5.4.8 0 .3-.1.6-.4.8-.2.2-.5.3-.8.3-.3 0-.6 0-.8-.3zm2 6.5V57l.5.2.6.2v.6a37.5 37.5 0 00-4.3 0v-.4-.2l.6-.2c.3 0 .4-.1.4-.2l.1-1.2v-2.1c0-.6 0-1-.2-1.2l-.4-.2-.3-.1H78v-.6l1.4-.2a16.4 16.4 0 001.6-.4H81.4v.2a52.2 52.2 0 01-.1 1.6v2.8zM40.7 5.8l2.2-.1v.5l-.6.2c-.3 0-.5.1-.5.2v5c0 1 .1 1.8.6 2.4.4.5 1 .8 1.7.8.8 0 1.4-.2 2-.7.4-.5.7-1.4.7-2.6V7.8c0-.6-.1-1-.2-1.1l-.6-.3-.7-.2V6v-.3a27.1 27.1 0 004 0v.5c-.6 0-1 .2-1.3.5-.2.2-.2.6-.2 1.2v3.6c0 1.5-.4 2.6-1.2 3.4-.7.8-1.7 1.2-2.9 1.2a4 4 0 01-3-1.2c-.8-.8-1.2-2-1.2-3.8V7.8 6.6l-.5-.2-.6-.2V6v-.3h2.3zM52.9 9c1 0 1.6 0 2 .3l.2 2h-.7c-.1-.5-.3-.8-.5-1-.2-.3-.6-.5-1-.5l-.6.2c-.2.1-.3.3-.3.5l.3.6 1 .6a8.5 8.5 0 011.3.8l.6.7.2.9c0 .7-.3 1.2-.8 1.5-.6.4-1.2.6-2 .6a5 5 0 01-1.3-.2l-1-.4-.1-2h.2c.4 0 .5 0 .5.2.2 1 .8 1.5 1.7 1.5.3 0 .5 0 .6-.2.2 0 .3-.3.3-.5l-.3-.6-1.2-.7a4 4 0 01-1.4-1 2 2 0 01-.4-1.3c0-.7.2-1.2.8-1.5.5-.3 1.2-.5 1.9-.5zm3.5 3.4l-.2-.3v-.3l1.2-.8V7.7l-.1-1.1c0-.2-.3-.3-.8-.3h-.2V6v-.3a15.4 15.4 0 002.9-.5H59.5v4.5l.8-.6.2.3c.1.2.2.2.1.3l-1.2.7v3.3l.1 1.4.4.2.6.2v.6a46 46 0 00-4.3-.4v-.2l.6-.2c.3 0 .4-.1.5-.2v-3.3l-.9.6zM69 11v3l.1 1 .3.2h.5v.6a11 11 0 00-1.4.1l-.7.2H67v-.8h-.1a3 3 0 01-1 .6c-.4.2-.9.3-1.4.3-.6 0-1-.3-1.5-.9-.3-.5-.5-1.1-.5-2v-1.4c0-.6 0-1-.3-1.2l-.3-.2-.4-.1h-.1v-.6l1.4-.2 1.5-.4H64.7l.1.2-.2 1.6v1.7c0 .8.1 1.4.3 1.7.3.3.6.5 1 .5s.7-.1.9-.3c.2-.1.3-.3.3-.5v-2.2c0-.6-.1-1-.3-1.2l-.4-.2-.3-.1h-.2v-.6l1.5-.2a16.4 16.4 0 001.5-.4H69.1v.2L69 11zm6.6 6.4c0-.5-.9-.7-2.6-.7-.4 0-.6.2-.7.3l-.1.4c0 .4.1.6.5.8.3.2.7.4 1 .4.6 0 1-.1 1.4-.3.3-.2.5-.5.5-1zM73 11.4a6.8 6.8 0 00.2 1.3l.2.5.5.1.5-.1.2-.4.1-.4v-.6l-.1-1.5c-.2-.3-.4-.5-.8-.5-.2 0-.3 0-.5.2l-.2.4a3.6 3.6 0 000 1zM74 9c.3 0 .7 0 1.2.2l1.3.2h.8l.2.3.1.3v.3h-1v.4l.2.8c0 .7-.3 1.3-.8 1.8-.6.6-1.2.8-2 .8h-1c-.2 0-.3 0-.4.2v.4l.6.1a15.4 15.4 0 011.2.1h.6c1.7.1 2.5.7 2.5 1.7 0 .7-.4 1.4-1.2 2a4.6 4.6 0 01-4.7.3c-.5-.3-.8-.7-.8-1.2 0-.2.1-.5.4-.7.2-.3.5-.5.9-.6a2 2 0 01-.8-.6c-.2-.2-.3-.5-.3-.8l.1-.4.4-.3a9.4 9.4 0 01.7-.5c-.3-.2-.6-.5-.8-.9-.3-.4-.4-.9-.4-1.3 0-.9.3-1.5.8-2 .6-.4 1.3-.6 2.1-.6zm5.7-1.8c-.3-.2-.4-.5-.4-.8 0-.3.1-.6.4-.8.2-.3.5-.4.8-.4.3 0 .6.1.8.4.2.2.3.5.3.8 0 .3 0 .6-.3.8-.2.2-.5.3-.8.3-.3 0-.6 0-.8-.3zm2 6.5V15s.2.2.5.2l.5.2.1.3v.3a37.6 37.6 0 00-4.3 0v-.4-.2l.6-.2.4-.2.1-1.2v-2.1c0-.6 0-1-.3-1.2 0 0-.1-.2-.3-.2l-.4-.1h-.1v-.6l1.4-.2a16.4 16.4 0 001.6-.4h.2l.1.2a48.9 48.9 0 01-.2 1.6v2.8z"/></svg>