<svg xmlns="http://www.w3.org/2000/svg" fill="none" viewBox="0 0 86 19">
  <defs/>
  <path fill="#9B8371" d="M49 1h20v7H49z"/>
  <path fill="#575555" d="M66 11h20v7H66zM6.7 5.5c0 .9-.3 1.6-.9 2-.6.4-1.5.7-2.5.7L1.7 8l-1-.6L.6 7v-.5c.1-.5.2-.8.4-1h.1v.1c0 .5.2 1 .6 1.5.5.4 1 .6 1.8.6.5 0 .9-.1 1.2-.3l.4-.7c0-.3-.1-.5-.3-.7a3 3 0 00-1-.6l-1.7-.8c-.5-.2-.9-.6-1.1-1-.2-.3-.3-.7-.3-1 0-.8.3-1.4.8-1.8.5-.4 1-.6 1.8-.6.5 0 1.1 0 1.9.2H6L5.8 2h-.1c0-.4-.2-.7-.5-1C4.9.9 4.5.8 4 .8S3 .7 2.9.9c-.3.2-.4.4-.5.7 0 .4.2.7.7.9l.3.1 2 1c1 .4 1.3 1 1.3 2zm4.9 2.6c-1.3 0-2.3-.3-3-.9a3 3 0 01-1.2-2.5c0-1 .4-2 1.1-2.5.8-.6 1.8-1 3.1-1 1 0 1.7.2 2.4.5L14 3.5h-.1c-.2-.6-.5-1-.8-1.3-.3-.3-.7-.4-1.2-.4-.7 0-1.3.2-1.6.7-.4.6-.5 1.3-.5 2.2 0 .9.1 1.6.5 2 .3.6.8 1 1.4 1 .5 0 1-.1 1.2-.3.3-.2.5-.4.6-.7l.4-1.5h.1l.3 1.8c-.4.8-1.3 1.1-2.6 1.1zm10.3-6v5.2c0 .2 0 .4.3.5h.3V8H19v-.1h.2c.1 0 .3 0 .4-.2l.1-.4V5h-2.1v2.4c0 .2 0 .3.2.4l.4.2V8h-3.5v-.1h.2c.1 0 .3 0 .4-.2l.1-.4V2.1l-.1-.4a.5.5 0 00-.4-.2h-.2v-.1h3.6v.1h-.1c-.2 0-.3 0-.4.2l-.2.4v2.3h2.1V2.1l-.1-.4a.6.6 0 00-.4-.2H19v-.1h3.6v.1h-.1c-.2 0-.3 0-.5.2L22 2zM23 4.7c0-1 .4-2 1-2.5.8-.6 1.8-1 3-1 1.3 0 2.3.4 3 1 .7.6 1 1.4 1 2.5 0 1-.3 2-1 2.5-.7.6-1.7 1-3 1-1.2 0-2.2-.4-3-1-.6-.6-1-1.4-1-2.5zm2.3 0c0 1 .1 1.7.4 2.2.3.5.8.7 1.3.7.6 0 1-.2 1.3-.7.3-.5.5-1.3.5-2.2 0-1.3-.3-2.1-.8-2.6-.3-.2-.6-.3-1-.3-.5 0-1 .2-1.3.7-.3.5-.4 1.3-.4 2.2zM38 2.3a3 3 0 011 2.4 3 3 0 01-1 2.4c-.7.6-1.7.9-3 .9h-3.7v-.1h.2c.1 0 .3 0 .4-.2l.2-.4V2.1l-.2-.4a.6.6 0 00-.5-.2v-.1h3.7c1.2 0 2.2.3 2.9.9zm-3.8-.4v5.6h.7c.5 0 1-.3 1.3-.7.4-.5.6-1.2.6-2.1 0-1.2-.3-2-1-2.5-.2-.2-.6-.3-1-.3h-.6zm12.3-.4h-.2a1 1 0 00-.5.2c-.2 0-.3.2-.4.3l-1.9 3v2.3l.2.4.4.2h.2V8h-3.6v-.1c.2 0 .4 0 .5-.2l.2-.4V5l-2-2.9a1 1 0 00-.4-.4H38.5v-.2h3.9v.1h-.1c-.2 0-.3 0-.3.2l-.1.2V2l1.4 2.3L44.6 2v-.2-.2l-.3-.2h-.1v-.1h2.4v.1zM13.5 10l.6.2h4.6a4.7 4.7 0 001.1 0l-3.7 7.3h1.6c.5 0 1-.2 1.4-.6.4-.3.7-.8.9-1.5l-.3 2.6h-6.3v-.1l3.6-7h-2c-.4 0-.7 0-1 .3-.2.3-.4.6-.4 1v.2V10zM27.7 18v.1H24v-.1h.1l.3-.1.1-.2v-.3l-.3-.7h-2l-.4.8v.4h.4v.2H20v-.1l.5-.1.4-.4 2.3-5 .6-1.4 3.1 6.3c.2.4.5.6 1 .6zM22.2 16h1.6l-.8-1.8-.8 1.8zm11 1.9h-5.7v-.1h.1c.2 0 .3 0 .4-.2.2 0 .2-.2.2-.4v-5.2c0-.2 0-.3-.2-.4a.5.5 0 00-.4-.2v-.1H31v.1H31c-.3 0-.5.1-.6.4V17.5h1c.5 0 .9-.2 1.2-.5.4-.3.6-.8.8-1.3l-.2 2.3zm3.9-.1v.1h-3.4v-.1c.2 0 .4 0 .5-.2l.1-.4v-5.2l-.1-.4a.5.5 0 00-.4-.2h-.1v-.1h3.5v.1H37c-.3 0-.4.1-.5.3l-.1.3v5.2c0 .2 0 .3.2.4l.4.2zm4.1-7.2c0-.4.3-.7.6-1.1l1-1c.5.2.8.6 1 1.1a7.6 7.6 0 01-2.6 1zm4.7.8h-.2c-.2 0-.3 0-.5.2l-.1.3v6l.1.1-4.7-3.9v3.1c0 .2 0 .3.2.4l.4.2h.2v.1h-3.8v-.1h.2c.2 0 .3 0 .5-.2l.1-.4v-4.9-1l-.1-.1h.1l4.6 3.9V12c0-.2 0-.3-.2-.4a.6.6 0 00-.4-.2h-.2v-.1H46v.1zm5.7 4.3c0 .8-.2 1.4-.8 1.8-.5.4-1.3.5-2.2.5l-1.3-.1-.8-.5V17v-.5c0-.4.2-.7.4-.9v.1c0 .5.2 1 .6 1.3.3.4.8.6 1.4.6.4 0 .7 0 .9-.2l.3-.6-.3-.6-.8-.5-1.2-.5a2 2 0 01-1-1 2 2 0 01-.3-.9V13c.2-1.2 1-1.7 2.1-1.7H51l-.2 1.7a1 1 0 00-.5-.9c-.2-.2-.6-.3-1-.3-.7 0-1.1.2-1.2.7l.3.6.6.3 1.5.6c.4.2.6.4.8.7.2.3.3.7.3 1zm4 2h.1v.2h-3.5v-.1c.2 0 .4 0 .5-.2l.2-.4v-5.2l-.2-.4a.5.5 0 00-.4-.2h-.1v-.1h3.5v.1h-.1c-.2 0-.3 0-.4.2l-.2.4v5.2c0 .2 0 .3.2.4l.4.2zm3.3.2h-.1c-1.2 0-2-.3-2.4-1a8.6 8.6 0 01-1.1-2l2.2-3v-.4l-.2-.1h-.1v-.1h2.2c-.4 0-.7.2-1 .5L57 13.7l2 3.4c.3.5.7.8 1 .8v.1H59zm4.4-.1h.1v.1H60v-.1h.1c.2 0 .3 0 .4-.2l.2-.4v-5.2c0-.2 0-.3-.2-.4a.5.5 0 00-.4-.2v-.1h3.4v.1c-.3 0-.5.1-.6.3v5.5l.1.4.4.2z"/>
</svg>
